<svg width="68" height="67" viewBox="0 0 68 67" fill="none" xmlns="http://www.w3.org/2000/svg">
<circle cx="34.3208" cy="33.566" r="32.434" fill="url(#paint0_linear_31_470)" stroke="white" stroke-width="2"/>
<path fill-rule="evenodd" clip-rule="evenodd" d="M34.3208 31.9859C33.3593 31.9859 32.4569 32.345 31.7617 33.0202C31.0812 33.681 30.7114 34.5573 30.7262 35.4623V35.4767C30.7262 36.4105 31.096 37.2868 31.7765 37.9476C32.4569 38.6084 33.3593 38.9675 34.3208 38.9675C36.303 38.9675 37.9005 37.4017 37.9153 35.4767C37.9153 34.5429 37.5455 33.6666 36.8651 33.0058C36.1846 32.345 35.2823 31.9859 34.3208 31.9859ZM42.6193 32.0864C41.8797 32.0864 41.288 31.5118 41.288 30.7935C41.288 30.0752 41.8797 29.4862 42.6193 29.4862C43.359 29.4862 43.9655 30.0752 43.9655 30.7935C43.9655 31.5118 43.359 32.0864 42.6193 32.0864ZM38.4183 39.4703C37.368 40.4903 35.9184 41.1224 34.3208 41.1224C32.7676 41.1224 31.3179 40.5334 30.2085 39.4703C29.1138 38.3929 28.5073 36.9851 28.5073 35.4767C28.4925 33.9827 29.099 32.5749 30.1937 31.4974C31.3031 30.42 32.7676 29.831 34.3208 29.831C35.874 29.831 37.3384 30.42 38.4331 31.4831C39.5277 32.5605 40.1342 33.9827 40.1342 35.4767C40.1194 37.0426 39.4685 38.4504 38.4183 39.4703ZM42.6637 25.4495C42.5306 25.4495 42.427 25.3777 42.3679 25.2771L42.2199 24.9611C41.8205 24.1423 41.362 23.1941 41.0809 22.6482C40.4005 21.3553 39.2319 20.637 37.797 20.6227H30.8298C29.3949 20.637 28.2411 21.3553 27.5606 22.6482C27.2648 23.2229 26.7618 24.2572 26.3476 25.1047L26.2589 25.2771C26.2145 25.3921 26.0962 25.4495 25.9778 25.4495C22.4128 25.4495 19.5283 28.2652 19.5283 31.7129V40.2461C19.5283 43.6938 22.4128 46.5095 25.9778 46.5095H42.6637C46.2139 46.5095 49.1132 43.6938 49.1132 40.2461V31.7129C49.1132 28.2652 46.2139 25.4495 42.6637 25.4495Z" fill="white"/>
<defs>
<linearGradient id="paint0_linear_31_470" x1="65.7548" y1="33.5662" x2="2.88684" y2="33.5662" gradientUnits="userSpaceOnUse">
<stop stop-color="#931372"/>
<stop offset="1" stop-color="#EA3E5C"/>
</linearGradient>
</defs>
</svg>
