<svg width="22" height="22" viewBox="0 0 22 22" fill="none" xmlns="http://www.w3.org/2000/svg">
<path d="M12.1376 16.3579C12.2673 16.4831 12.441 16.5523 12.6213 16.5507C12.8015 16.549 12.9739 16.4766 13.1013 16.3491C13.2287 16.2216 13.301 16.0491 13.3024 15.8688C13.3039 15.6886 13.2345 15.5149 13.1093 15.3853L12.1376 16.3579ZM6.61467 8.88892C6.55122 8.82328 6.47533 8.77095 6.39143 8.73495C6.30754 8.69896 6.21732 8.68004 6.12603 8.67929C6.03475 8.67854 5.94423 8.69598 5.85975 8.73059C5.77528 8.76519 5.69854 8.81628 5.63402 8.88086C5.5695 8.94544 5.51849 9.02223 5.48396 9.10673C5.44943 9.19124 5.43208 9.28178 5.43291 9.37306C5.43375 9.46435 5.45276 9.55455 5.48883 9.63841C5.5249 9.72227 5.57731 9.79811 5.643 9.8615L6.61467 8.88892ZM14.7336 14.7327C14.8011 14.6697 14.8553 14.5938 14.8929 14.5095C14.9305 14.4252 14.9507 14.3341 14.9523 14.2418C14.9539 14.1495 14.9369 14.0578 14.9024 13.9722C14.8678 13.8866 14.8163 13.8088 14.751 13.7435C14.6858 13.6783 14.608 13.6268 14.5224 13.5922C14.4368 13.5576 14.3451 13.5407 14.2528 13.5423C14.1605 13.5439 14.0694 13.5641 13.9851 13.6017C13.9008 13.6393 13.8249 13.6935 13.7619 13.761L14.7336 14.7327ZM16.929 10.5921C16.8617 10.6553 16.8078 10.7314 16.7706 10.8159C16.7334 10.9003 16.7135 10.9914 16.7122 11.0837C16.711 11.176 16.7283 11.2677 16.7632 11.3531C16.7981 11.4386 16.8499 11.5161 16.9154 11.5812C16.9809 11.6462 17.0589 11.6974 17.1446 11.7316C17.2303 11.7659 17.322 11.7825 17.4143 11.7805C17.5066 11.7786 17.5976 11.758 17.6818 11.7202C17.7659 11.6823 17.8416 11.6278 17.9043 11.5601L16.929 10.5921ZM5.53208 10.945L10.945 5.53117L9.97333 4.56042L4.56042 9.9715L5.53208 10.945ZM5.53208 16.467C4.75292 15.6878 4.2185 15.1507 3.87108 14.6951C3.53467 14.2542 3.4375 13.9709 3.4375 13.7051L2.0625 13.706C2.0625 14.3926 2.3485 14.9655 2.7775 15.5293C3.19458 16.0756 3.80875 16.687 4.56042 17.4387L5.53208 16.467ZM4.56042 9.9715C3.80875 10.7232 3.19458 11.3355 2.7775 11.8818C2.3485 12.4447 2.0625 13.0185 2.0625 13.706L3.4375 13.7051C3.4375 13.4392 3.53467 13.156 3.87108 12.716C4.21942 12.2595 4.75292 11.7242 5.53208 10.945L4.56042 9.9715ZM11.055 16.4679C10.2758 17.2471 9.73958 17.7806 9.28308 18.1289C8.84308 18.4644 8.55892 18.5616 8.29308 18.5616V19.9366C8.98058 19.9366 9.55442 19.6506 10.1172 19.2216C10.6636 18.8045 11.2759 18.1903 12.0276 17.4387L11.055 16.4679ZM4.56042 17.4387C5.31208 18.1903 5.9235 18.8045 6.47075 19.2216C7.03358 19.6506 7.60742 19.9375 8.294 19.9375V18.5616C8.02817 18.5616 7.74492 18.4644 7.304 18.128C6.84842 17.7797 6.31125 17.2462 5.53208 16.467L4.56042 17.4387ZM16.4679 5.53117C17.2471 6.31033 17.7815 6.8475 18.1298 7.30308C18.4653 7.744 18.5625 8.02725 18.5625 8.29308H19.9375C19.9375 7.6065 19.6515 7.03267 19.2225 6.46892C18.8054 5.92258 18.1912 5.31117 17.4396 4.5595L16.4679 5.53117ZM17.4396 4.5595C16.6879 3.80783 16.0765 3.19367 15.5293 2.77658C14.9664 2.34758 14.3926 2.06158 13.706 2.06158V3.43658C13.9718 3.43658 14.2551 3.53375 14.696 3.87017C15.1516 4.2185 15.6888 4.752 16.4679 5.53117L17.4396 4.5595ZM10.945 5.53117C11.7242 4.752 12.2604 4.21758 12.7169 3.87017C13.1569 3.53375 13.4411 3.43658 13.7069 3.43658V2.06158C13.0194 2.06158 12.4456 2.34758 11.8828 2.77658C11.3364 3.19367 10.7241 3.80783 9.97242 4.5595L10.945 5.53117ZM13.1102 15.3844L6.61467 8.88983L5.643 9.8615L12.1376 16.3579L13.1102 15.3844ZM13.761 13.7601L11.055 16.4679L12.0267 17.4387L14.7336 14.7327L13.761 13.7601ZM17.9043 11.5601C18.5103 10.9496 19.0098 10.4271 19.3545 9.93575C19.7102 9.42883 19.9375 8.9045 19.9375 8.29308H18.5625C18.5625 8.53142 18.4837 8.78258 18.2288 9.1465C17.9621 9.52692 17.545 9.9715 16.929 10.5921L17.9043 11.5601Z" fill="white"/>
<path d="M8.25 19.25H19.25H8.25Z" fill="white"/>
<path d="M8.25 19.25H19.25" stroke="white" stroke-width="1.5" stroke-linecap="round"/>
</svg>
