<svg width="29" height="21" viewBox="0 0 29 21" fill="none" xmlns="http://www.w3.org/2000/svg">
<path d="M8.7 10.5C11.5048 10.5 13.775 8.24941 13.775 5.46875C13.775 2.68809 11.5048 0.4375 8.7 0.4375C5.89516 0.4375 3.625 2.68809 3.625 5.46875C3.625 8.24941 5.89516 10.5 8.7 10.5ZM12.18 11.9375H11.8039C10.8614 12.3867 9.81469 12.6562 8.7 12.6562C7.58531 12.6562 6.54313 12.3867 5.59609 11.9375H5.22C2.33812 11.9375 0 14.2555 0 17.1125V18.4062C0 19.5967 0.974219 20.5625 2.175 20.5625H15.225C16.4258 20.5625 17.4 19.5967 17.4 18.4062V17.1125C17.4 14.2555 15.0619 11.9375 12.18 11.9375ZM21.75 10.5C24.1516 10.5 26.1 8.56836 26.1 6.1875C26.1 3.80664 24.1516 1.875 21.75 1.875C19.3484 1.875 17.4 3.80664 17.4 6.1875C17.4 8.56836 19.3484 10.5 21.75 10.5ZM23.925 11.9375H23.7528C23.123 12.1531 22.4569 12.2969 21.75 12.2969C21.0431 12.2969 20.377 12.1531 19.7472 11.9375H19.575C18.6506 11.9375 17.7987 12.2025 17.0511 12.6293C18.1567 13.8107 18.85 15.3785 18.85 17.1125V18.8375C18.85 18.9363 18.8273 19.0307 18.8228 19.125H26.825C28.0258 19.125 29 18.1592 29 16.9688C29 14.1881 26.7298 11.9375 23.925 11.9375Z" fill="#ADAFBB"/>
</svg>
