<svg width="21" height="21" viewBox="0 0 21 21" fill="none" xmlns="http://www.w3.org/2000/svg">
<path fill-rule="evenodd" clip-rule="evenodd" d="M11.2553 0.307429C11.0583 0.110582 10.7913 0 10.5129 0C10.2345 0 9.96746 0.110582 9.77055 0.307429L2.42055 7.65751L0.320553 9.75753C0.220267 9.85439 0.140276 9.97025 0.0852462 10.0984C0.0302168 10.2265 0.00125115 10.3642 3.96446e-05 10.5037C-0.00117186 10.6431 0.025395 10.7814 0.0781899 10.9104C0.130985 11.0394 0.208951 11.1567 0.307538 11.2553C0.406125 11.3538 0.52336 11.4318 0.652401 11.4846C0.781442 11.5374 0.919706 11.564 1.05912 11.5628C1.19854 11.5616 1.33632 11.5326 1.46443 11.4776C1.59253 11.4225 1.70839 11.3425 1.80525 11.2422L2.1129 10.9346V17.85C2.1129 18.6854 2.44478 19.4866 3.03552 20.0774C3.62626 20.6681 4.42747 21 5.2629 21H15.7629C16.5983 21 17.3995 20.6681 17.9903 20.0774C18.581 19.4866 18.9129 18.6854 18.9129 17.85V10.9346L19.2206 11.2422C19.4186 11.4335 19.6838 11.5393 19.9591 11.537C20.2344 11.5346 20.4978 11.4241 20.6925 11.2295C20.8871 11.0348 20.9976 10.7714 21 10.4961C21.0024 10.2208 20.8965 9.95556 20.7053 9.75753L11.2553 0.307429Z" fill="url(#paint0_linear_91_4299)"/>
<defs>
<linearGradient id="paint0_linear_91_4299" x1="21" y1="10.5" x2="3.34e-08" y2="10.5" gradientUnits="userSpaceOnUse">
<stop stop-color="#931372"/>
<stop offset="1" stop-color="#EA3E5C"/>
</linearGradient>
</defs>
</svg>
