<svg width="19" height="19" viewBox="0 0 19 19" fill="none" xmlns="http://www.w3.org/2000/svg">
<g clip-path="url(#clip0_88_2815)">
<path d="M14.4231 0.173544C14.4783 0.11825 14.5438 0.0743803 14.616 0.0444476C14.6881 0.0145149 14.7654 -0.000892639 14.8435 -0.000892639C14.9216 -0.000892639 14.999 0.0145149 15.0711 0.0444476C15.1432 0.0743803 15.2087 0.11825 15.2639 0.173544L18.8264 3.73604C18.8817 3.7912 18.9256 3.85672 18.9555 3.92885C18.9854 4.00099 19.0008 4.07832 19.0008 4.15642C19.0008 4.23452 18.9854 4.31185 18.9555 4.38398C18.9256 4.45612 18.8817 4.52164 18.8264 4.57679L6.95139 16.4518C6.89441 16.5084 6.82654 16.5528 6.75189 16.5824L0.814395 18.9574C0.706494 19.0006 0.58829 19.0112 0.474437 18.9878C0.360584 18.9645 0.256088 18.9082 0.173906 18.826C0.0917229 18.7439 0.0354668 18.6394 0.0121117 18.5255C-0.0112434 18.4116 -0.000670455 18.2934 0.0425197 18.1855L2.41752 12.248C2.44712 12.1734 2.49156 12.1055 2.54814 12.0485L14.4231 0.173544ZM13.3081 2.96892L16.031 5.69186L17.5665 4.15642L14.8435 1.43348L13.3081 2.96892ZM15.1915 6.53142L12.4685 3.80848L4.74977 11.5272V11.8752H5.34352C5.50099 11.8752 5.65201 11.9377 5.76336 12.0491C5.87471 12.1604 5.93727 12.3114 5.93727 12.4689V13.0627H6.53102C6.68849 13.0627 6.83951 13.1252 6.95086 13.2366C7.06221 13.3479 7.12477 13.4989 7.12477 13.6564V14.2502H7.47271L15.1915 6.53142ZM3.60027 12.6767L3.4744 12.8026L1.65989 17.34L6.19733 15.5255L6.32321 15.3997C6.20994 15.3574 6.1123 15.2815 6.04333 15.1821C5.97436 15.0828 5.93736 14.9648 5.93727 14.8439V14.2502H5.34352C5.18605 14.2502 5.03502 14.1876 4.92368 14.0763C4.81233 13.9649 4.74977 13.8139 4.74977 13.6564V13.0627H4.15602C4.03511 13.0626 3.91711 13.0256 3.81779 12.9566C3.71848 12.8876 3.64259 12.79 3.60027 12.6767Z" fill="white"/>
</g>
<defs>
<clipPath id="clip0_88_2815">
<rect width="19" height="19" fill="white"/>
</clipPath>
</defs>
</svg>
