<svg width="21" height="21" viewBox="0 0 21 21" fill="none" xmlns="http://www.w3.org/2000/svg">
<path d="M9.45825 15.7083H11.5416V9.45833H9.45825V15.7083ZM10.4999 7.37499C10.7951 7.37499 11.0426 7.27499 11.2426 7.07499C11.4426 6.87499 11.5423 6.62777 11.5416 6.33333C11.5409 6.03888 11.4409 5.79166 11.2416 5.59166C11.0423 5.39166 10.7951 5.29166 10.4999 5.29166C10.2048 5.29166 9.95756 5.39166 9.75825 5.59166C9.55895 5.79166 9.45895 6.03888 9.45825 6.33333C9.45756 6.62777 9.55756 6.87534 9.75825 7.07604C9.95895 7.27673 10.2062 7.37638 10.4999 7.37499ZM10.4999 20.9167C9.05895 20.9167 7.70478 20.643 6.43742 20.0958C5.17006 19.5486 4.06763 18.8066 3.13013 17.8698C2.19263 16.933 1.45061 15.8305 0.904087 14.5625C0.357559 13.2944 0.0839477 11.9403 0.0832533 10.5C0.0825588 9.05972 0.35617 7.70555 0.904087 6.4375C1.452 5.16944 2.19402 4.06701 3.13013 3.1302C4.06624 2.1934 5.16867 1.45138 6.43742 0.904162C7.70617 0.356939 9.06034 0.0833282 10.4999 0.0833282C11.9395 0.0833282 13.2937 0.356939 14.5624 0.904162C15.8312 1.45138 16.9336 2.1934 17.8697 3.1302C18.8058 4.06701 19.5482 5.16944 20.0968 6.4375C20.6454 7.70555 20.9187 9.05972 20.9166 10.5C20.9145 11.9403 20.6409 13.2944 20.0958 14.5625C19.5506 15.8305 18.8086 16.933 17.8697 17.8698C16.9308 18.8066 15.8284 19.549 14.5624 20.0969C13.2964 20.6448 11.9423 20.918 10.4999 20.9167Z" fill="#ADAFBB"/>
</svg>
