<svg width="21" height="21" viewBox="0 0 21 21" fill="none" xmlns="http://www.w3.org/2000/svg">
<path d="M9.45899 15.7083H11.5423V9.45834H9.45899V15.7083ZM10.5007 7.37501C10.7958 7.37501 11.0434 7.27501 11.2434 7.07501C11.4434 6.87501 11.543 6.62779 11.5423 6.33334C11.5416 6.0389 11.4416 5.79168 11.2423 5.59168C11.043 5.39168 10.7958 5.29168 10.5007 5.29168C10.2055 5.29168 9.95829 5.39168 9.75899 5.59168C9.55968 5.79168 9.45968 6.0389 9.45899 6.33334C9.45829 6.62779 9.55829 6.87536 9.75899 7.07605C9.95968 7.27675 10.2069 7.3764 10.5007 7.37501ZM10.5007 20.9167C9.05968 20.9167 7.70551 20.6431 6.43815 20.0958C5.17079 19.5486 4.06836 18.8066 3.13086 17.8698C2.19336 16.933 1.45135 15.8306 0.904819 14.5625C0.358291 13.2945 0.0846801 11.9403 0.0839857 10.5C0.0832912 9.05973 0.356902 7.70557 0.904819 6.43751C1.45274 5.16946 2.19475 4.06702 3.13086 3.13022C4.06697 2.19341 5.1694 1.4514 6.43815 0.904177C7.7069 0.356955 9.06107 0.0833435 10.5007 0.0833435C11.9402 0.0833435 13.2944 0.356955 14.5632 0.904177C15.8319 1.4514 16.9343 2.19341 17.8704 3.13022C18.8066 4.06702 19.5489 5.16946 20.0975 6.43751C20.6461 7.70557 20.9194 9.05973 20.9173 10.5C20.9152 11.9403 20.6416 13.2945 20.0965 14.5625C19.5513 15.8306 18.8093 16.933 17.8704 17.8698C16.9316 18.8066 15.8291 19.549 14.5632 20.0969C13.2972 20.6448 11.943 20.9181 10.5007 20.9167Z" fill="url(#paint0_linear_91_4275)"/>
<defs>
<linearGradient id="paint0_linear_91_4275" x1="20.9173" y1="10.5001" x2="0.0839844" y2="10.5001" gradientUnits="userSpaceOnUse">
<stop stop-color="#931372"/>
<stop offset="1" stop-color="#EA3E5C"/>
</linearGradient>
</defs>
</svg>
